PERFORMER "Nick Cave & The Bad Seeds"
TITLE "Skeleton Tree"
FILE "Skeleton Tree (A).flac" FLAC
  TRACK 01 AUDIO
    TITLE "Jesus Alone"
    INDEX 01 00:00:00
  TRACK 02 AUDIO
    TITLE "Rings Of Saturn"
    INDEX 01 05:53:00
  TRACK 03 AUDIO
    TITLE "Girl In Amber"
        INDEX 01 09:25:00
  TRACK 04 AUDIO
    TITLE "Magneto"
    PERFORMER "Nick Cave & The Bad Seeds"
    INDEX 01 14:17:00
FILE "Skeleton Tree (B).flac" FLAC
  TRACK 05 AUDIO
    TITLE "Anthrocene"
    INDEX 01 00:00:00
  TRACK 06 AUDIO
    TITLE "I Need You"
    INDEX 01 04:37:00
  TRACK 07 AUDIO
    TITLE "Distant Sky"
    INDEX 01 10:37:00
  TRACK 08 AUDIO
    TITLE "Skeleton Tree"
    INDEX 01 16:15:00
